<?xml version="1.0" encoding="us-ascii" standalone="no"?><svg xmlns="http://www.w3.org/2000/svg" xmlns:xlink="http://www.w3.org/1999/xlink" contentStyleType="text/css" height="571px" preserveAspectRatio="none" style="width:1147px;height:571px;background:#FFFFFF;" version="1.1" viewBox="0 0 1147 571" width="1147px" zoomAndPan="magnify"><defs/><g><rect fill="#DDDDDD" height="559.5859" style="stroke:#181818;stroke-width:0.5;" width="162" x="11" y="6"/><text fill="#000000" font-family="sans-serif" font-size="13" font-weight="bold" lengthAdjust="spacing" textLength="61" x="61.5" y="18.0669">Eng Con</text><rect fill="#DDDDDD" height="559.5859" style="stroke:#181818;stroke-width:0.5;" width="449" x="227.5" y="6"/><text fill="#000000" font-family="sans-serif" font-size="13" font-weight="bold" lengthAdjust="spacing" textLength="116" x="394" y="18.0669">MCS (Minikube)</text><rect fill="#DDDDDD" height="559.5859" style="stroke:#181818;stroke-width:0.5;" width="452.5" x="688.5" y="6"/><text fill="#000000" font-family="sans-serif" font-size="13" font-weight="bold" lengthAdjust="spacing" textLength="29" x="900.25" y="18.0669">FHS</text><rect fill="#DDDDDD" height="539.4531" style="stroke:#181818;stroke-width:0.5;" width="329.5" x="732.5" y="26.1328"/><text fill="#000000" font-family="sans-serif" font-size="13" font-weight="bold" lengthAdjust="spacing" textLength="67" x="863.75" y="38.1997">Minikube</text><line style="stroke:#181818;stroke-width:0.5;stroke-dasharray:5.0,5.0;" x1="92" x2="92" y1="76.5625" y2="528.2891"/><line style="stroke:#181818;stroke-width:0.5;stroke-dasharray:5.0,5.0;" x1="286" x2="286" y1="76.5625" y2="528.2891"/><line style="stroke:#181818;stroke-width:0.5;stroke-dasharray:5.0,5.0;" x1="411" x2="411" y1="76.5625" y2="528.2891"/><line style="stroke:#181818;stroke-width:0.5;stroke-dasharray:5.0,5.0;" x1="532.5" x2="532.5" y1="76.5625" y2="528.2891"/><line style="stroke:#181818;stroke-width:0.5;stroke-dasharray:5.0,5.0;" x1="633" x2="633" y1="76.5625" y2="528.2891"/><line style="stroke:#181818;stroke-width:0.5;stroke-dasharray:5.0,5.0;" x1="709.5" x2="709.5" y1="76.5625" y2="528.2891"/><line style="stroke:#181818;stroke-width:0.5;stroke-dasharray:5.0,5.0;" x1="780.5" x2="780.5" y1="76.5625" y2="528.2891"/><line style="stroke:#181818;stroke-width:0.5;stroke-dasharray:5.0,5.0;" x1="924.5" x2="924.5" y1="76.5625" y2="528.2891"/><line style="stroke:#181818;stroke-width:0.5;stroke-dasharray:5.0,5.0;" x1="1015" x2="1015" y1="76.5625" y2="528.2891"/><line style="stroke:#181818;stroke-width:0.5;stroke-dasharray:5.0,5.0;" x1="1107.5" x2="1107.5" y1="76.5625" y2="528.2891"/><rect fill="#E2E2F0" height="30.2969" rx="2.5" ry="2.5" style="stroke:#181818;stroke-width:0.5;" width="154" x="15" y="45.2656"/><text fill="#000000" font-family="sans-serif" font-size="14" lengthAdjust="spacing" textLength="140" x="22" y="65.2607">EngineeringConsole</text><rect fill="#E2E2F0" height="30.2969" rx="2.5" ry="2.5" style="stroke:#181818;stroke-width:0.5;" width="109" x="231.5" y="45.2656"/><text fill="#000000" font-family="sans-serif" font-size="14" lengthAdjust="spacing" textLength="95" x="238.5" y="65.2607">CBFController</text><rect fill="#E2E2F0" height="30.2969" rx="2.5" ry="2.5" style="stroke:#181818;stroke-width:0.5;" width="121" x="350.5" y="45.2656"/><text fill="#000000" font-family="sans-serif" font-size="14" lengthAdjust="spacing" textLength="107" x="357.5" y="65.2607">FHSLRU_maybe</text><rect fill="#E2E2F0" height="30.2969" rx="2.5" ry="2.5" style="stroke:#181818;stroke-width:0.5;" width="102" x="481.5" y="45.2656"/><text fill="#000000" font-family="sans-serif" font-size="14" lengthAdjust="spacing" textLength="88" x="488.5" y="65.2607">PowerSwitch</text><rect fill="#E2E2F0" height="30.2969" rx="2.5" ry="2.5" style="stroke:#181818;stroke-width:0.5;" width="79" x="593.5" y="45.2656"/><text fill="#000000" font-family="sans-serif" font-size="14" lengthAdjust="spacing" textLength="65" x="600.5" y="65.2607">TangoDB</text><rect fill="#E2E2F0" height="30.2969" rx="2.5" ry="2.5" style="stroke:#181818;stroke-width:0.5;" width="34" x="692.5" y="45.2656"/><text fill="#000000" font-family="sans-serif" font-size="14" lengthAdjust="spacing" textLength="20" x="699.5" y="65.2607">OS</text><rect fill="#E2E2F0" height="30.2969" rx="2.5" ry="2.5" style="stroke:#181818;stroke-width:0.5;" width="88" x="736.5" y="45.2656"/><text fill="#000000" font-family="sans-serif" font-size="14" lengthAdjust="spacing" textLength="74" x="743.5" y="65.2607">FHSMaster</text><rect fill="#E2E2F0" height="30.2969" rx="2.5" ry="2.5" style="stroke:#181818;stroke-width:0.5;" width="75" x="887" y="45.2656"/><text fill="#000000" font-family="sans-serif" font-size="14" lengthAdjust="spacing" textLength="61" x="894" y="65.2607">Emulator</text><rect fill="#E2E2F0" height="30.2969" rx="2.5" ry="2.5" style="stroke:#181818;stroke-width:0.5;" width="86" x="972" y="45.2656"/><text fill="#000000" font-family="sans-serif" font-size="14" lengthAdjust="spacing" textLength="72" x="979" y="65.2607">TangoDSs</text><rect fill="#E2E2F0" height="30.2969" rx="2.5" ry="2.5" style="stroke:#181818;stroke-width:0.5;" width="59" x="1078" y="45.2656"/><text fill="#000000" font-family="sans-serif" font-size="14" lengthAdjust="spacing" textLength="45" x="1085" y="65.2607">FPGAs</text><rect fill="#E2E2F0" height="30.2969" rx="2.5" ry="2.5" style="stroke:#181818;stroke-width:0.5;" width="154" x="15" y="528.2891"/><text fill="#000000" font-family="sans-serif" font-size="14" lengthAdjust="spacing" textLength="140" x="22" y="548.2842">EngineeringConsole</text><rect fill="#E2E2F0" height="30.2969" rx="2.5" ry="2.5" style="stroke:#181818;stroke-width:0.5;" width="109" x="231.5" y="528.2891"/><text fill="#000000" font-family="sans-serif" font-size="14" lengthAdjust="spacing" textLength="95" x="238.5" y="548.2842">CBFController</text><rect fill="#E2E2F0" height="30.2969" rx="2.5" ry="2.5" style="stroke:#181818;stroke-width:0.5;" width="121" x="350.5" y="528.2891"/><text fill="#000000" font-family="sans-serif" font-size="14" lengthAdjust="spacing" textLength="107" x="357.5" y="548.2842">FHSLRU_maybe</text><rect fill="#E2E2F0" height="30.2969" rx="2.5" ry="2.5" style="stroke:#181818;stroke-width:0.5;" width="102" x="481.5" y="528.2891"/><text fill="#000000" font-family="sans-serif" font-size="14" lengthAdjust="spacing" textLength="88" x="488.5" y="548.2842">PowerSwitch</text><rect fill="#E2E2F0" height="30.2969" rx="2.5" ry="2.5" style="stroke:#181818;stroke-width:0.5;" width="79" x="593.5" y="528.2891"/><text fill="#000000" font-family="sans-serif" font-size="14" lengthAdjust="spacing" textLength="65" x="600.5" y="548.2842">TangoDB</text><rect fill="#E2E2F0" height="30.2969" rx="2.5" ry="2.5" style="stroke:#181818;stroke-width:0.5;" width="34" x="692.5" y="528.2891"/><text fill="#000000" font-family="sans-serif" font-size="14" lengthAdjust="spacing" textLength="20" x="699.5" y="548.2842">OS</text><rect fill="#E2E2F0" height="30.2969" rx="2.5" ry="2.5" style="stroke:#181818;stroke-width:0.5;" width="88" x="736.5" y="528.2891"/><text fill="#000000" font-family="sans-serif" font-size="14" lengthAdjust="spacing" textLength="74" x="743.5" y="548.2842">FHSMaster</text><rect fill="#E2E2F0" height="30.2969" rx="2.5" ry="2.5" style="stroke:#181818;stroke-width:0.5;" width="75" x="887" y="528.2891"/><text fill="#000000" font-family="sans-serif" font-size="14" lengthAdjust="spacing" textLength="61" x="894" y="548.2842">Emulator</text><rect fill="#E2E2F0" height="30.2969" rx="2.5" ry="2.5" style="stroke:#181818;stroke-width:0.5;" width="86" x="972" y="528.2891"/><text fill="#000000" font-family="sans-serif" font-size="14" lengthAdjust="spacing" textLength="72" x="979" y="548.2842">TangoDSs</text><rect fill="#E2E2F0" height="30.2969" rx="2.5" ry="2.5" style="stroke:#181818;stroke-width:0.5;" width="59" x="1078" y="528.2891"/><text fill="#000000" font-family="sans-serif" font-size="14" lengthAdjust="spacing" textLength="45" x="1085" y="548.2842">FPGAs</text><polygon fill="#181818" points="274,101.6953,284,105.6953,274,109.6953,278,105.6953" style="stroke:#181818;stroke-width:1.0;"/><line style="stroke:#181818;stroke-width:1.0;" x1="92" x2="280" y1="105.6953" y2="105.6953"/><text fill="#000000" font-family="sans-serif" font-size="13" lengthAdjust="spacing" textLength="119" x="99" y="100.6294">Download Artifacts</text><polygon fill="#181818" points="399,130.8281,409,134.8281,399,138.8281,403,134.8281" style="stroke:#181818;stroke-width:1.0;"/><line style="stroke:#181818;stroke-width:1.0;" x1="286" x2="405" y1="134.8281" y2="134.8281"/><text fill="#000000" font-family="sans-serif" font-size="13" lengthAdjust="spacing" textLength="94" x="293" y="129.7622">Copy Artefacts</text><polygon fill="#181818" points="274,159.9609,284,163.9609,274,167.9609,278,163.9609" style="stroke:#181818;stroke-width:1.0;"/><line style="stroke:#181818;stroke-width:1.0;" x1="92" x2="280" y1="163.9609" y2="163.9609"/><text fill="#000000" font-family="sans-serif" font-size="13" lengthAdjust="spacing" textLength="170" x="99" y="158.895">Configure Tango Database</text><polygon fill="#181818" points="621,189.0938,631,193.0938,621,197.0938,625,193.0938" style="stroke:#181818;stroke-width:1.0;"/><line style="stroke:#181818;stroke-width:1.0;" x1="286" x2="627" y1="193.0938" y2="193.0938"/><text fill="#000000" font-family="sans-serif" font-size="13" lengthAdjust="spacing" textLength="152" x="293" y="188.0278">Add FHS Tango Devices</text><polygon fill="#181818" points="274,218.2266,284,222.2266,274,226.2266,278,222.2266" style="stroke:#181818;stroke-width:1.0;"/><line style="stroke:#181818;stroke-width:1.0;" x1="92" x2="280" y1="222.2266" y2="222.2266"/><text fill="#000000" font-family="sans-serif" font-size="13" lengthAdjust="spacing" textLength="28" x="99" y="217.1606">On()</text><polygon fill="#181818" points="399,232.2266,409,236.2266,399,240.2266,403,236.2266" style="stroke:#181818;stroke-width:1.0;"/><line style="stroke:#181818;stroke-width:1.0;" x1="286" x2="405" y1="236.2266" y2="236.2266"/><polygon fill="#181818" points="520.5,246.2266,530.5,250.2266,520.5,254.2266,524.5,250.2266" style="stroke:#181818;stroke-width:1.0;"/><line style="stroke:#181818;stroke-width:1.0;" x1="411" x2="526.5" y1="250.2266" y2="250.2266"/><polygon fill="#181818" points="422,260.2266,412,264.2266,422,268.2266,418,264.2266" style="stroke:#181818;stroke-width:1.0;"/><line style="stroke:#181818;stroke-width:1.0;" x1="416" x2="531.5" y1="264.2266" y2="264.2266"/><polygon fill="#181818" points="697.5,289.3594,707.5,293.3594,697.5,297.3594,701.5,293.3594" style="stroke:#181818;stroke-width:1.0;"/><line style="stroke:#181818;stroke-width:1.0;" x1="286" x2="703.5" y1="293.3594" y2="293.3594"/><text fill="#000000" font-family="sans-serif" font-size="13" lengthAdjust="spacing" textLength="94" x="293" y="288.2935">Copy Artefacts</text><polygon fill="#181818" points="768.5,318.4922,778.5,322.4922,768.5,326.4922,772.5,322.4922" style="stroke:#181818;stroke-width:1.0;"/><line style="stroke:#181818;stroke-width:1.0;" x1="286" x2="774.5" y1="322.4922" y2="322.4922"/><text fill="#000000" font-family="sans-serif" font-size="13" lengthAdjust="spacing" textLength="54" x="293" y="317.4263">Deploy()</text><polygon fill="#181818" points="768.5,347.625,778.5,351.625,768.5,355.625,772.5,351.625" style="stroke:#181818;stroke-width:1.0;"/><line style="stroke:#181818;stroke-width:1.0;" x1="286" x2="774.5" y1="351.625" y2="351.625"/><text fill="#000000" font-family="sans-serif" font-size="13" lengthAdjust="spacing" textLength="71" x="293" y="346.5591">Configure()</text><polygon fill="#181818" points="912.5,376.7578,922.5,380.7578,912.5,384.7578,916.5,380.7578" style="stroke:#181818;stroke-width:1.0;"/><line style="stroke:#181818;stroke-width:1.0;" x1="780.5" x2="918.5" y1="380.7578" y2="380.7578"/><text fill="#000000" font-family="sans-serif" font-size="13" lengthAdjust="spacing" textLength="112" x="787.5" y="375.6919">DeployEmulator()</text><polygon fill="#181818" points="720.5,405.8906,710.5,409.8906,720.5,413.8906,716.5,409.8906" style="stroke:#181818;stroke-width:1.0;"/><line style="stroke:#181818;stroke-width:1.0;" x1="714.5" x2="923.5" y1="409.8906" y2="409.8906"/><text fill="#000000" font-family="sans-serif" font-size="13" lengthAdjust="spacing" textLength="191" x="726.5" y="404.8247">get emulator bitstream config</text><line style="stroke:#181818;stroke-width:1.0;" x1="924.5" x2="966.5" y1="439.0234" y2="439.0234"/><line style="stroke:#181818;stroke-width:1.0;" x1="966.5" x2="966.5" y1="439.0234" y2="452.0234"/><line style="stroke:#181818;stroke-width:1.0;" x1="925.5" x2="966.5" y1="452.0234" y2="452.0234"/><polygon fill="#181818" points="935.5,448.0234,925.5,452.0234,935.5,456.0234,931.5,452.0234" style="stroke:#181818;stroke-width:1.0;"/><text fill="#000000" font-family="sans-serif" font-size="13" lengthAdjust="spacing" textLength="71" x="931.5" y="433.9575">Configure()</text><polygon fill="#181818" points="1003,477.1563,1013,481.1563,1003,485.1563,1007,481.1563" style="stroke:#181818;stroke-width:1.0;"/><line style="stroke:#181818;stroke-width:1.0;" x1="780.5" x2="1009" y1="481.1563" y2="481.1563"/><text fill="#000000" font-family="sans-serif" font-size="13" lengthAdjust="spacing" textLength="80" x="787.5" y="476.0903">DeployDSs()</text><polygon fill="#181818" points="1095.5,506.2891,1105.5,510.2891,1095.5,514.2891,1099.5,510.2891" style="stroke:#181818;stroke-width:1.0;"/><line style="stroke:#181818;stroke-width:1.0;" x1="780.5" x2="1101.5" y1="510.2891" y2="510.2891"/><text fill="#000000" font-family="sans-serif" font-size="13" lengthAdjust="spacing" textLength="122" x="787.5" y="505.2231">Program Bitstream</text><!--SRC=[ZLFDRi8m3BxdAR8R7FO2FKpYTpiCWTRjFBcjAH5jKYNfElRqSoWf3GN4pR6_7yTEp5x82ZIKFDv1fXeXSxw5mY1xgZJa9N2BwezRNIDZYVhb2mBCb6H4iY8L5KZhSa8YQY9JoQW26SgC4xpbh6On7ws45FiwmN50dKsNHB5Q5GNgeB9yYzy_lhvBE2GO53QgGHqtmgQx8Fy9CbVpQMXDAW5e7PzQEdLpQRa2OoyQMPHr0LRfAsQnOPrT8BHvdPXp8smu8Fxy4juzudFLo491nYSaj8NK6XOW7AK_b8ZsK1qS6blqGouKRqLUQsolmETW8G7Qzy3hDC-8JxBC6Ni2_eWK7tHRoz7u_YrO_-2A_VNsuW5leBgE1nEvvjnkcCQDLQ4EDzhpe6vQXElI3kCVXTVnPyBvqFUKe-NeSucmncga_vOUfGFqMVIchtzttfV2IyZnyKLyerNk_lMqSsJi7m00]--></g></svg>